<svg xmlns="http://www.w3.org/2000/svg" width="256" height="256" data-name="Layer 1" viewBox="0 0 256 256"><path d="M128.5 2.9l107.5 62v124.2l-107.5 62-107.5-62V64.9l107.5-62z"/><path fill="#fff" d="M69.6 172.9a1.9 1.9 0 0 1-2-2v-24.7h-27a2 2 0 0 1 0-4.1h15.3v-13.3a1.9 1.9 0 0 1 2-2h8a64.6 64.6 0 0 1 62.4-49.5c.2-.2.4-.2.8 0 30.2.2 55.2 21.4 62 49.5h8a1.9 1.9 0 0 1 2 2v13.3h15.3a2 2 0 1 1 0 4.1h-26.9v24.7a1.9 1.9 0 0 1-2 2zm-9.6-42v11.2h137v-11.2zm64.4-49.3c-26.1 1.6-47.9 20.6-54.2 45.3H92zm-52.8 64.6v22.6h54.8v-22.6zm54.8-60.5l-29.3 41.1h29.4zm4.1-4.3v45.5h56.3a60.6 60.6 0 0 0-56.3-45.6zm0 64.8v22.6h9.2v-22.6zm13.3 0v22.6h41.6v-22.6z"/></svg>