<svg xmlns="http://www.w3.org/2000/svg"><symbol id="mecha-stilts" viewBox="0 0 256 256"><path d="M128.5 2.9l107.5 62v124.2l-107.5 62-107.5-62V64.9zm58.9 170a1.9 1.9 0 0 0 2-2v-24.7h26.9a2 2 0 1 0 0-4.1h-15.2v-13.3a1.9 1.9 0 0 0-2-2h-8c-6.7-28.1-31.8-49.3-62-49.5-.4-.2-.6-.2-.8 0a64.6 64.6 0 0 0-62.4 49.5H58a1.9 1.9 0 0 0-2 2v13.3H40.6a2 2 0 0 0 0 4.1h26.9v24.7a1.9 1.9 0 0 0 2 2zm9.6-42v11.2H60v-11.2zm-105-4.1H70.2c6.3-24.7 28.1-43.6 54.2-45.3zm34.5 19.4v22.6H71.6v-22.6zm0-19.4H97.1l29.4-41.2zm60.3 0h-56.3V81.3a60.6 60.6 0 0 1 56.3 45.5zm-47.1 19.4v22.6h-9.2v-22.6zm45.7 0v22.6h-41.6v-22.6z"/></symbol><symbol id="space-bubbles" viewBox="0 0 256 256"><path d="M128.5 1.1L238 64.3v126.4l-109.5 63.2L19 190.7V64.3zM69.3 179.4l10-5.2h98.2l10 5.2a2.2 2.2 0 0 0 2.7-.6l4.8-6.9a2.2 2.2 0 0 0 0-2.5L178 149h10.6a2 2 0 0 0 2.1-2.1v-15a2 2 0 0 0-2.1-2.1h-12a51 51 0 0 0 2.3-15.8 49.1 49.1 0 0 0-98.2 0 58 58 0 0 0 2.1 16h-12a2 2 0 0 0-2.1 2.1v15a2 2 0 0 0 2.1 2.1h8.5L62 169.4a2.2 2.2 0 0 0-.2 2.5l4.8 6.9a2.3 2.3 0 0 0 2.7.6zm34.9-23.1l-35.1 18.5-2.9-4.2L84.5 149h13.7zm82.2-22.2v10.8H72.8v-10.8zM84.7 114.2a45 45 0 0 1 89.9 0 50.2 50.2 0 0 1-2.5 15.8H87.2c-2.1-4.8-2.5-10.4-2.5-15.8zm30.9 55.9H87.4l19.7-10.4zm37.8-21l-17.4 21h-15l-17.4-21zm16.2 21h-28.2l8.5-10.4zm21.2.8l-2.9 3.9-35.3-18.5 6.2-7.3h13.7z"/></symbol><symbol id="super-domes" viewBox="0 0 256 256"><path d="M128 1.1l109 63v125.8l-109 63-109-63V64.1zm63.2 172.4a2.1 2.1 0 1 0 0-4.1h-10.3v-13h10.3a2 2 0 0 0 2.1-2.1v-40.7a2 2 0 0 0-2.1-2.1h-13.6C176.6 82.1 154.7 66 128 66s-48.6 16.1-49.6 45.5H64.7a2 2 0 0 0-2.1 2.1v40.7a2 2 0 0 0 2.1 2.1h10.4v13H64.7a2.1 2.1 0 0 0 0 4.1zm-2.1-57.9v36.6H66.8v-36.6zm-96.7 40.7v13H79.2v-13zM128 70.2c24.2 0 44.4 14.7 45.5 41.3h-91c1.1-26.7 21.3-41.3 45.5-41.3zm-10.8 86.2v13H96.6v-13zm17.4 0v13h-13.2v-13zm44.9-16.1a2.2 2.2 0 0 0-2.1-2.1H127a2.1 2.1 0 1 0 0 4.1h50.4a2.2 2.2 0 0 0 2.1-2.1zm-20.1 16.1v13h-20.7v-13zm17.4 0v13h-13.3v-13z"/></symbol></svg>