<svg xmlns="http://www.w3.org/2000/svg" width="256" height="256" data-name="Layer 1" viewBox="0 0 256 256"><path d="M128.5 1.1L238 64.3v126.4l-109.5 63.2L19 190.7V64.3L128.5 1.1z"/><path fill="#fff" d="M66.6 178.8l-4.8-6.9a2.2 2.2 0 0 1 .2-2.5L79.2 149h-8.4a2 2 0 0 1-2.1-2.1v-15a2 2 0 0 1 2.1-2.1h12a58 58 0 0 1-2.3-15.8 49.1 49.1 0 0 1 98.2 0 51 51 0 0 1-2.3 15.8h12a2 2 0 0 1 2.1 2.1v15a2 2 0 0 1-2.1 2.1h-10.5l17 20.4a2.2 2.2 0 0 1 0 2.5l-4.8 6.9a2.2 2.2 0 0 1-2.7.6l-10-5.2H79.3l-10 5.2a2.3 2.3 0 0 1-2.7-.6zm31.6-29.7H84.5l-18.3 21.6 2.9 4.2 35.1-18.5zm-25.3-15v10.8h113.5v-10.8zm14.3-4.1h84.9a50.2 50.2 0 0 0 2.5-15.8 45 45 0 0 0-89.9 0c0 5.4.4 11 2.5 15.8zm19.9 29.7l-19.7 10.4h28.2zm-3.5-10.6l17.4 21h15l17.4-21zm46.3 10.6l-8.5 10.4h28.2zm22.6-10.6h-13.7l-6.2 7.3 35.3 18.5 2.9-3.9z"/></svg>