<svg xmlns="http://www.w3.org/2000/svg"><symbol id="mecha-stilts" viewBox="0 0 256 256"><path d="M128.5 2.9l107.5 62v124.2l-107.5 62-107.5-62V64.9l107.5-62z"/><path fill="#fff" d="M69.6 172.9a1.9 1.9 0 0 1-2-2v-24.7h-27a2 2 0 0 1 0-4.1h15.3v-13.3a1.9 1.9 0 0 1 2-2h8a64.6 64.6 0 0 1 62.4-49.5c.2-.2.4-.2.8 0 30.2.2 55.2 21.4 62 49.5h8a1.9 1.9 0 0 1 2 2v13.3h15.3a2 2 0 1 1 0 4.1h-26.9v24.7a1.9 1.9 0 0 1-2 2zm-9.6-42v11.2h137v-11.2zm64.4-49.3c-26.1 1.6-47.9 20.6-54.2 45.3H92zm-52.8 64.6v22.6h54.8v-22.6zm54.8-60.5l-29.3 41.1h29.4zm4.1-4.3v45.5h56.3a60.6 60.6 0 0 0-56.3-45.6zm0 64.8v22.6h9.2v-22.6zm13.3 0v22.6h41.6v-22.6z"/></symbol><symbol id="space-bubbles" viewBox="0 0 256 256"><path d="M128.5 1.1L238 64.3v126.4l-109.5 63.2L19 190.7V64.3L128.5 1.1z"/><path fill="#fff" d="M66.6 178.8l-4.8-6.9a2.2 2.2 0 0 1 .2-2.5L79.2 149h-8.4a2 2 0 0 1-2.1-2.1v-15a2 2 0 0 1 2.1-2.1h12a58 58 0 0 1-2.3-15.8 49.1 49.1 0 0 1 98.2 0 51 51 0 0 1-2.3 15.8h12a2 2 0 0 1 2.1 2.1v15a2 2 0 0 1-2.1 2.1h-10.5l17 20.4a2.2 2.2 0 0 1 0 2.5l-4.8 6.9a2.2 2.2 0 0 1-2.7.6l-10-5.2H79.3l-10 5.2a2.3 2.3 0 0 1-2.7-.6zm31.6-29.7H84.5l-18.3 21.6 2.9 4.2 35.1-18.5zm-25.3-15v10.8h113.5v-10.8zm14.3-4.1h84.9a50.2 50.2 0 0 0 2.5-15.8 45 45 0 0 0-89.9 0c0 5.4.4 11 2.5 15.8zm19.9 29.7l-19.7 10.4h28.2zm-3.5-10.6l17.4 21h15l17.4-21zm46.3 10.6l-8.5 10.4h28.2zm22.6-10.6h-13.7l-6.2 7.3 35.3 18.5 2.9-3.9z"/></symbol><symbol id="super-domes" viewBox="0 0 256 256"><path d="M128 3.1l109 63v125.8l-109 63-109-63V66.1l109-63z"/><path fill="#fff" d="M64.7 175.5a2.1 2.1 0 0 1 0-4.1h10.4v-13H64.7a2 2 0 0 1-2.1-2.1v-40.7a2 2 0 0 1 2.1-2.1h13.7C79.4 84.1 101.3 68 128 68s48.6 16.1 49.6 45.5h13.6a2 2 0 0 1 2.1 2.1v40.7a2 2 0 0 1-2.1 2.1h-10.3v13h10.3a2.1 2.1 0 1 1 0 4.1zm2.1-57.9v36.6h122.4v-36.6zm12.4 40.7v13h13.2v-13zm3.3-44.9h91c-1-26.7-21.3-41.3-45.5-41.3s-44.4 14.7-45.5 41.4zm14.1 44.9v13h20.7v-13zm24.8 0v13h13.2v-13zm56-14.1H127a2.1 2.1 0 1 1 0-4.1h50.4a2.1 2.1 0 0 1 0 4.1zm-38.7 14.1v13h20.7v-13zm24.8 0v13h13.2v-13z"/></symbol></svg>