<svg xmlns="http://www.w3.org/2000/svg" width="256" height="256" data-name="Layer 1" viewBox="0 0 256 256"><path d="M128 3.1l109 63v125.8l-109 63-109-63V66.1l109-63z"/><path fill="#fff" d="M64.7 175.5a2.1 2.1 0 0 1 0-4.1h10.4v-13H64.7a2 2 0 0 1-2.1-2.1v-40.7a2 2 0 0 1 2.1-2.1h13.7C79.4 84.1 101.3 68 128 68s48.6 16.1 49.6 45.5h13.6a2 2 0 0 1 2.1 2.1v40.7a2 2 0 0 1-2.1 2.1h-10.3v13h10.3a2.1 2.1 0 1 1 0 4.1zm2.1-57.9v36.6h122.4v-36.6zm12.4 40.7v13h13.2v-13zm3.3-44.9h91c-1-26.7-21.3-41.3-45.5-41.3s-44.4 14.7-45.5 41.4zm14.1 44.9v13h20.7v-13zm24.8 0v13h13.2v-13zm56-14.1H127a2.1 2.1 0 1 1 0-4.1h50.4a2.1 2.1 0 0 1 0 4.1zm-38.7 14.1v13h20.7v-13zm24.8 0v13h13.2v-13z"/></svg>